<svg xmlns="http://www.w3.org/2000/svg" width="20" height="20" viewBox="0 0 20 20">
  <path id="path" d="M5.364,22.545a1.633,1.633,0,0,0,2.091,2.091l3-.727A9.723,9.723,0,0,0,15,25a9.936,9.936,0,1,0-8.909-5.409l-.727,2.955Zm2.591-2.864A.908.908,0,0,0,7.864,19,8.184,8.184,0,1,1,11,22.136a.881.881,0,0,0-.682-.091l-3.182.773.818-3.136Zm11.136-5.591a.909.909,0,0,0,0-1.818H10.909a.909.909,0,1,0,0,1.818Zm0,3.636a.909.909,0,0,0,0-1.818H13.636a.909.909,0,0,0,0,1.818Z" transform="translate(-5 -5)" fill="#fff"/>
</svg>
