<svg xmlns="http://www.w3.org/2000/svg" width="16.162" height="9.392" viewBox="0 0 16.162 9.392">
  <g id="Group_1219" data-name="Group 1219" transform="translate(-3082 -5287.677)">
    <path id="line" d="M.8-.011l9.828-.13a.778.778,0,0,1,.793.793V.76a.829.829,0,0,1-.814.814L.781,1.7A.778.778,0,0,1-.012.912V.8A.829.829,0,0,1,.8-.011Z" transform="translate(3088.878 5295.855) rotate(-45)" fill="#454f63"/>
    <path id="line-2" data-name="line" d="M.8.011l9.828.13a.829.829,0,0,1,.814.814v.109a.778.778,0,0,1-.793.793L.826,1.726A.829.829,0,0,1,.012.912V.8A.778.778,0,0,1,.8.011Z" transform="translate(3090.087 5297.084) rotate(-135)" fill="#454f63"/>
  </g>
</svg>
