<svg id="home" xmlns="http://www.w3.org/2000/svg" width="22" height="22" viewBox="0 0 22 22">
  <g id="Group_92" data-name="Group 92" transform="translate(0 0)">
    <g id="Group_91" data-name="Group 91">
      <path id="Path_75" data-name="Path 75" d="M21.765,36.5l-10.428-8.58a.521.521,0,0,0-.675,0L.233,36.5a.7.7,0,0,0-.124.9.532.532,0,0,0,.8.139L11,29.236l10.091,8.3a.528.528,0,0,0,.337.124.553.553,0,0,0,.462-.263A.7.7,0,0,0,21.765,36.5Z" transform="translate(0.001 -27.798)" fill="#fff"/>
    </g>
  </g>
  <g id="Group_94" data-name="Group 94" transform="translate(2.726 9.849)">
    <g id="Group_93" data-name="Group 93">
      <path id="Path_76" data-name="Path 76" d="M72.449,232.543a.6.6,0,0,0-.552.642V243.41H67.484v-5.581a2.79,2.79,0,1,0-5.516,0v5.581H57.555V233.185a.558.558,0,1,0-1.1,0v10.867a.6.6,0,0,0,.552.642H62.52a.594.594,0,0,0,.549-.592c0-.015,0-.031,0-.05v-6.223a1.674,1.674,0,1,1,3.31,0v6.223c0,.019,0,.035,0,.049a.594.594,0,0,0,.549.593h5.516a.6.6,0,0,0,.552-.642V233.185A.6.6,0,0,0,72.449,232.543Z" transform="translate(-56.452 -232.543)" fill="#fff"/>
    </g>
  </g>
</svg>
