<svg xmlns="http://www.w3.org/2000/svg" width="16.919" height="15.169" viewBox="0 0 16.919 15.169">
  <g id="list" transform="translate(21.624 22.872) rotate(180)">
    <path id="Path_84" data-name="Path 84" d="M29.741,48.09H15.019a1.1,1.1,0,0,1,0-2.2H29.74a1.1,1.1,0,0,1,0,2.2Z" transform="translate(-9.215 -25.218)" fill="#fff"/>
    <path id="Path_85" data-name="Path 85" d="M29.741,29.259H15.019a1.1,1.1,0,1,1,0-2.2H29.74a1.1,1.1,0,0,1,0,2.2Z" transform="translate(-9.215 -12.873)" fill="#fff"/>
    <path id="Path_86" data-name="Path 86" d="M29.741,10.428H15.019a1.1,1.1,0,1,1,0-2.2H29.74a1.1,1.1,0,0,1,0,2.2Z" transform="translate(-9.215 -0.528)" fill="#fff"/>
  </g>
</svg>
