<svg id="music_1_" data-name="music (1)" xmlns="http://www.w3.org/2000/svg" width="20" height="20" viewBox="0 0 20 20">
  <path id="Path_77" data-name="Path 77" d="M19.79.136a.586.586,0,0,0-.48-.127L6.341,2.353a.586.586,0,0,0-.482.577V13.866a3.514,3.514,0,1,0,1.172,2.618V7.716l11.8-2.132v6.524A3.514,3.514,0,1,0,20,14.726V.586A.586.586,0,0,0,19.79.136ZM3.516,18.828a2.344,2.344,0,1,1,2.344-2.344A2.346,2.346,0,0,1,3.516,18.828Zm3.516-12.3V3.419l11.8-2.132V4.393ZM16.484,17.07a2.344,2.344,0,1,1,2.344-2.344A2.346,2.346,0,0,1,16.484,17.07Z" transform="translate(0 0)" fill="#fff"/>
</svg>
