<svg xmlns="http://www.w3.org/2000/svg" width="22" height="22" viewBox="0 0 22 22">
  <g id="network_2_" data-name="network (2)" transform="translate(0 -10.354)">
    <path id="Path_83" data-name="Path 83" d="M21.734,16.422a2.281,2.281,0,0,0-1.323-1.193,2.04,2.04,0,0,0-1.7.186,2.407,2.407,0,0,0-1.084,1.456,2.68,2.68,0,0,0-.036,1.269l-2.414,1.422a4.586,4.586,0,0,0-3.194-2.106V15.189a2.437,2.437,0,0,0,1.654-2.375,2.358,2.358,0,0,0-2.235-2.46,2.359,2.359,0,0,0-2.236,2.46,2.437,2.437,0,0,0,1.654,2.375v2.266a4.737,4.737,0,0,0-3.7,3.123L4.47,19.8a2.634,2.634,0,0,0-.3-1.227A2.263,2.263,0,0,0,2.818,17.42a2.224,2.224,0,0,0-2.74,1.735A2.66,2.66,0,0,0,.3,21.022a2.264,2.264,0,0,0,1.356,1.148,2.042,2.042,0,0,0,1.7-.243,2.344,2.344,0,0,0,.816-.9l2.642.783a5.629,5.629,0,0,0-.044.7,5.4,5.4,0,0,0,.974,3.122L5.8,27.765a2.087,2.087,0,0,0-2.694.391,2.641,2.641,0,0,0,0,3.479,2.1,2.1,0,0,0,3.162,0,2.651,2.651,0,0,0,.355-2.965l1.937-2.131a4.29,4.29,0,0,0,5.674,0l1.937,2.131a2.651,2.651,0,0,0,.355,2.965,2.1,2.1,0,0,0,3.162,0,2.641,2.641,0,0,0,0-3.479,2.087,2.087,0,0,0-2.694-.391l-1.937-2.131a5.4,5.4,0,0,0,.974-3.122,5.524,5.524,0,0,0-.307-1.823l2.412-1.421a2.2,2.2,0,0,0,.98.67,2.038,2.038,0,0,0,1.7-.186A2.407,2.407,0,0,0,21.9,18.3a2.665,2.665,0,0,0-.169-1.874Zm-1.465,2.2a.978.978,0,0,1-.817.089,1.094,1.094,0,0,1-.635-.572,1.278,1.278,0,0,1-.081-.9,1.154,1.154,0,0,1,.52-.7.978.978,0,0,1,.817-.089,1.094,1.094,0,0,1,.635.572,1.278,1.278,0,0,1,.081.9A1.154,1.154,0,0,1,20.269,18.624Zm-5.4,3.888A3.661,3.661,0,0,1,11.4,26.33a3.661,3.661,0,0,1-3.47-3.818,3.661,3.661,0,0,1,3.47-3.818A3.661,3.661,0,0,1,14.868,22.512Zm-4.543-9.7a1.131,1.131,0,0,1,1.072-1.18,1.185,1.185,0,0,1,0,2.36A1.131,1.131,0,0,1,10.326,12.814ZM1.957,20.935a1.086,1.086,0,0,1-.65-.551,1.276,1.276,0,0,1-.106-.9,1.067,1.067,0,0,1,1.315-.833,1.086,1.086,0,0,1,.651.551,1.276,1.276,0,0,1,.106.9A1.067,1.067,0,0,1,1.957,20.935Zm3.49,9.795a1.006,1.006,0,0,1-1.517,0,1.267,1.267,0,0,1,0-1.669,1.006,1.006,0,0,1,1.517,0A1.267,1.267,0,0,1,5.447,30.73Zm13.419-1.669a1.267,1.267,0,0,1,0,1.669,1.006,1.006,0,0,1-1.517,0,1.267,1.267,0,0,1,0-1.669,1.006,1.006,0,0,1,1.517,0Z" transform="translate(0)" fill="#fff"/>
  </g>
</svg>
