<svg xmlns="http://www.w3.org/2000/svg" width="70.54" height="11.296" viewBox="0 0 70.54 11.296">
  <g id="Group_965" data-name="Group 965" transform="translate(-108.96 -620.677)">
    <path id="star" d="M2.638,11.788a.627.627,0,0,1-.61-.766l.758-3.34L.215,5.426A.627.627,0,0,1,.57,4.33l3.4-.309L5.318.873a.626.626,0,0,1,1.152,0L7.815,4.021l3.4.309a.627.627,0,0,1,.356,1.1L9,7.681l.758,3.34a.626.626,0,0,1-.932.677L5.894,9.945,2.96,11.7A.628.628,0,0,1,2.638,11.788Zm3.255-2.6a.628.628,0,0,1,.321.089l2.769,1.656L8.268,7.782a.626.626,0,0,1,.2-.61l2.428-2.13L7.682,4.75a.626.626,0,0,1-.521-.38L5.894,1.4,4.624,4.371a.624.624,0,0,1-.519.378L.892,5.041,3.32,7.17a.625.625,0,0,1,.2.611L2.8,10.934,5.572,9.278A.628.628,0,0,1,5.894,9.189ZM3.946,4.082h0Zm3.894,0h0Zm0,0" transform="translate(123.496 620.184)" fill="#bbbccd"/>
    <path id="star-2" data-name="star" d="M2.638,11.788a.627.627,0,0,1-.61-.766l.758-3.34L.215,5.426A.627.627,0,0,1,.57,4.33l3.4-.309L5.318.873a.626.626,0,0,1,1.152,0L7.815,4.021l3.4.309a.627.627,0,0,1,.356,1.1L9,7.681l.758,3.34a.626.626,0,0,1-.932.677L5.894,9.945,2.96,11.7A.628.628,0,0,1,2.638,11.788Zm3.255-2.6a.628.628,0,0,1,.321.089l2.769,1.656L8.268,7.782a.626.626,0,0,1,.2-.61l2.428-2.13L7.682,4.75a.626.626,0,0,1-.521-.38L5.894,1.4,4.624,4.371a.624.624,0,0,1-.519.378L.892,5.041,3.32,7.17a.625.625,0,0,1,.2.611L2.8,10.934,5.572,9.278A.628.628,0,0,1,5.894,9.189ZM3.946,4.082h0Zm3.894,0h0Zm0,0" transform="translate(108.959 620.184)" fill="#bbbccd"/>
    <path id="star-3" data-name="star" d="M2.638,11.788a.627.627,0,0,1-.61-.766l.758-3.34L.215,5.426A.627.627,0,0,1,.57,4.33l3.4-.309L5.318.873a.626.626,0,0,1,1.152,0L7.815,4.021l3.4.309a.627.627,0,0,1,.356,1.1L9,7.681l.758,3.34a.626.626,0,0,1-.932.677L5.894,9.945,2.96,11.7A.628.628,0,0,1,2.638,11.788Zm3.255-2.6a.628.628,0,0,1,.321.089l2.769,1.656L8.268,7.782a.626.626,0,0,1,.2-.61l2.428-2.13L7.682,4.75a.626.626,0,0,1-.521-.38L5.894,1.4,4.624,4.371a.624.624,0,0,1-.519.378L.892,5.041,3.32,7.17a.625.625,0,0,1,.2.611L2.8,10.934,5.572,9.278A.628.628,0,0,1,5.894,9.189ZM3.946,4.082h0Zm3.894,0h0Zm0,0" transform="translate(138.639 620.184)" fill="#bbbccd"/>
    <path id="star-4" data-name="star" d="M2.638,11.788a.627.627,0,0,1-.61-.766l.758-3.34L.215,5.426A.627.627,0,0,1,.57,4.33l3.4-.309L5.318.873a.626.626,0,0,1,1.152,0L7.815,4.021l3.4.309a.627.627,0,0,1,.356,1.1L9,7.681l.758,3.34a.626.626,0,0,1-.932.677L5.894,9.945,2.96,11.7A.628.628,0,0,1,2.638,11.788Zm3.255-2.6a.628.628,0,0,1,.321.089l2.769,1.656L8.268,7.782a.626.626,0,0,1,.2-.61l2.428-2.13L7.682,4.75a.626.626,0,0,1-.521-.38L5.894,1.4,4.624,4.371a.624.624,0,0,1-.519.378L.892,5.041,3.32,7.17a.625.625,0,0,1,.2.611L2.8,10.934,5.572,9.278A.628.628,0,0,1,5.894,9.189ZM3.946,4.082h0Zm3.894,0h0Zm0,0" transform="translate(153.176 620.184)" fill="#bbbccd"/>
    <path id="star-5" data-name="star" d="M2.638,11.788a.627.627,0,0,1-.61-.766l.758-3.34L.215,5.426A.627.627,0,0,1,.57,4.33l3.4-.309L5.318.873a.626.626,0,0,1,1.152,0L7.815,4.021l3.4.309a.627.627,0,0,1,.356,1.1L9,7.681l.758,3.34a.626.626,0,0,1-.932.677L5.894,9.945,2.96,11.7A.628.628,0,0,1,2.638,11.788Zm3.255-2.6a.628.628,0,0,1,.321.089l2.769,1.656L8.268,7.782a.626.626,0,0,1,.2-.61l2.428-2.13L7.682,4.75a.626.626,0,0,1-.521-.38L5.894,1.4,4.624,4.371a.624.624,0,0,1-.519.378L.892,5.041,3.32,7.17a.625.625,0,0,1,.2.611L2.8,10.934,5.572,9.278A.628.628,0,0,1,5.894,9.189ZM3.946,4.082h0Zm3.894,0h0Zm0,0" transform="translate(167.713 620.184)" fill="#bbbccd"/>
  </g>
</svg>
