<svg xmlns="http://www.w3.org/2000/svg" width="28.529" height="22.042" viewBox="0 0 28.529 22.042">
  <path id="rewind-forward" d="M14.968,14.247a1.3,1.3,0,0,1-1.991,1.1L4.594,10.029V26.015L12.977,20.7a1.3,1.3,0,0,1,1.991,1.1v4.217l12.613-7.993L14.968,10.03ZM12.374,9.229a2.058,2.058,0,0,1,3.307-1.817l13.7,8.682a2.2,2.2,0,0,1,0,3.859l-13.7,8.682a2.057,2.057,0,0,1-3.307-1.817V24.156L5.307,28.634A2.057,2.057,0,0,1,2,26.817V9.229A2.058,2.058,0,0,1,5.307,7.411l7.067,4.479Z" transform="translate(-2 -7.002)" fill="#454f63"/>
</svg>
