<svg xmlns="http://www.w3.org/2000/svg" width="28.529" height="22.042" viewBox="0 0 28.529 22.042">
  <path id="rewind-back" d="M27.222,7.411a2.058,2.058,0,0,1,3.307,1.817V26.817a2.057,2.057,0,0,1-3.307,1.817l-7.067-4.478v2.661a2.057,2.057,0,0,1-3.307,1.817l-13.7-8.682a2.2,2.2,0,0,1,0-3.859l13.7-8.682a2.058,2.058,0,0,1,3.307,1.817V11.89l7.067-4.479Zm-7.67,7.931a1.3,1.3,0,0,1-1.991-1.1V10.03L4.948,18.023l12.613,7.993V21.8a1.3,1.3,0,0,1,1.991-1.1l8.384,5.314V10.03Z" transform="translate(-2 -7.002)" fill="#454f63"/>
</svg>
