<svg xmlns="http://www.w3.org/2000/svg" width="14.941" height="18.264" viewBox="0 0 14.941 18.264">
  <path id="ico" d="M11.711,10.375a2.91,2.91,0,0,1,0,1.511l4.4,3.3A2.905,2.905,0,1,1,15.23,16.6l-4.4-3.3a2.905,2.905,0,1,1,0-4.346l4.4-3.3a2.905,2.905,0,1,1,.877,1.417l-4.4,3.3Zm6.325-4.225A1.245,1.245,0,1,0,16.791,4.9,1.245,1.245,0,0,0,18.037,6.149Zm0,12.452a1.245,1.245,0,1,0-1.245-1.245A1.245,1.245,0,0,0,18.037,18.6ZM8.905,12.375A1.245,1.245,0,1,0,7.66,11.13,1.245,1.245,0,0,0,8.905,12.375Z" transform="translate(-6 -1.998)" fill="#8e8e93"/>
</svg>
